<svg xmlns="http://www.w3.org/2000/svg" width="3293.04" height="1379.937" class="w-[200px] h-[100px] text-white"><g fill="#fff"><path d="M200.872 247.276c-20.809 0-36.62-9.993-39.7-27.653l18.276-4.244c1.642 11.158 10.472 17.18 22.109 17.18 9.172 0 17.112-3.9 17.043-13.552-.137-10.199-11.704-13.28-24.23-16.907-14.717-4.38-29.981-9.446-29.981-27.516 0-18.207 14.922-28.064 33.95-28.064 17.18 0 33.814 7.119 37.646 25.12l-17.112 4.244c-2.053-10.13-9.65-14.716-19.576-14.716-8.83 0-16.975 3.765-16.975 13.074 0 8.556 10.199 11.294 21.835 14.58 15.059 4.38 32.787 9.788 32.787 29.364 0 20.466-17.18 29.09-36.073 29.09zm364.762 0c-28.474 0-49.694-19.508-49.694-50.448s21.219-50.308 49.694-50.308c28.338 0 49.625 19.37 49.625 50.308s-21.287 50.448-49.625 50.448zm0-16.428c17.934 0 31.966-12.526 31.966-34.018 0-21.288-14.032-33.882-31.966-33.882-18.001 0-32.033 12.594-32.033 33.882 0 21.492 14.032 34.018 32.033 34.018zm445.052 15.06h-17.591l-6.571-76.253-26.969 76.252h-11.294l-26.832-76.252-6.571 76.252h-17.66l7.94-98.085h24.915l23.82 66.807 23.957-66.807h24.984zm344.022-82.344h-37.443v25.531h33.13v15.607h-33.13v25.394h37.443v15.811h-55.442v-98.085h55.442v15.743zm342.446-15.742v15.743h-23.957v82.343h-17.591v-82.343h-24.025v-15.743h65.573zm344.02 0h17.797v98.085h-17.796v-41.343h-44.08v41.343h-17.866v-98.085h17.866v41.136h44.08v-41.136zm310.346 98.085v-98.085h17.796v98.085h-17.796zm376.944-98.085h17.728v98.085h-20.123l-46.544-73.308v73.308h-17.66v-98.085h19.918l46.68 72.761v-72.761zm352.44 99.454c-27.928 0-48.871-19.234-48.871-50.171 0-31.213 21.219-50.585 49.694-50.585 18.55 0 34.156 8.145 42.714 22.999l-15.675 8.35c-5.544-10.678-15.47-15.674-27.037-15.674-18.07 0-31.897 12.389-31.897 34.498 0 21.63 13.142 34.908 32.513 34.908 14.169 0 26.352-7.46 28.885-23.41h-28.885v-14.51h45.86v52.225h-14.169V230.71c-6.365 10.405-17.522 16.565-33.129 16.565zM146.52 543.064h236.546c79.172 0 130.34 27.837 153.514 83.516 9.977 28.642 14.964 61.47 14.964 98.48v28.965c0 66.942-14.643 117.946-43.93 153.029h-50.203v25.585h76.754v165.096h-45.378v25.585h68.549v97.516h-143.86v-155.925h-55.512V964.018h-96.548v170.89h20.758v98.48H148.938c-1.61 0-2.414-.805-2.414-2.414V953.878h59.379v-19.792h-59.379V543.062zm135.65 112.509V850.6h32.827c49.24 0 77.723-4.667 85.445-14 8.045-5.149 14.321-15.608 18.827-31.378h51.172v-24.62h-46.343v2.413c-2.574 14.805-4.505 22.207-5.793 22.207H352.17v-24.62h69.517c1.61 0 2.414-.644 2.414-1.931.644-19.953.966-31.217.966-33.792 0-43.124-7.403-69.517-22.207-79.171-11.586-6.759-32.826-10.138-63.724-10.138h-56.96zm-14.963 314.244H273c3.219 1.61 4.828 4.023 4.828 7.241 1.287 0 2.736-2.414 4.344-7.24h7.241v1.447l-7.24 10.138c0 .644 2.735 4.988 8.206 13.034v.965h-5.793c-.643 0-2.896-2.735-6.758-8.206-2.253 5.149-4.184 7.885-5.793 8.207h-5.793c5.15-8.046 7.724-12.713 7.724-14zm.964 34.756h21.241v3.862l-13.034 15.931h13.034v5.793h-22.206v-4.345l12.551-16.413h-11.586v-4.827zm930.97-462.448h116.34c1.61 6.758 39.424 132.593 113.444 377.503h20.758v227.371h-47.792v17.862h47.792v48.757H1321.27v-139.994h-157.374v59.379h-63.724v100.413H983.349v-6.759h9.172v-93.65h47.791v-193.58h39.585zm54.55 194.518v1.448c-9.977 54.708-29.287 141.284-57.93 259.715h108.134v-78.202h-9.173c-25.746-111.995-38.62-172.98-38.62-182.961h-2.413zm-206.13 168.002h10.62c0 2.896 1.448 5.31 4.345 7.24.322-2.896 1.93-5.31 4.827-7.24h8.207v.965c-5.47 7.724-8.207 12.069-8.207 13.034 1.287 2.897 4.345 7.564 9.172 14v2.413h-4.344c-4.506 0-7.724-3.218-9.655-9.654-4.828 6.436-7.563 9.654-8.207 9.654h-5.793c-1.609 0-2.414-.804-2.414-2.413.966 0 4.184-4.345 9.655-13.034v-1.931c-5.47-8.046-8.207-12.39-8.207-13.034zm-97.999 14h90.754v20.757h-90.754v-20.758zm503.5 14.963h24.62v5.792l-14.964 18.827h14c1.287.322 1.93 1.127 1.93 2.414v2.414c0 1.609-.643 2.414-1.93 2.414h-24.62v-5.793l14.964-18.827h-14v-7.241zm-178.13 30.416h6.758v11.585l13.034-11.586h6.758v1.448l-10.137 11.586c7.723 10.943 11.586 17.058 11.586 18.345h-7.241c-.644 0-4.184-4.184-10.62-12.552-.965 0-2.092 1.127-3.38 3.38v9.172h-6.758v-31.379zm180.543 10.618h13.999c7.08.965 10.62 4.505 10.62 10.62l-3.38 5.793c2.254 2.574 3.38 7.24 3.38 14v.965h-7.241c-.644-7.724-1.77-11.586-3.379-11.586h-8.207v11.586h-5.793c-1.609 0-2.413-.805-2.413-2.414v-26.55c.322-1.61 1.126-2.414 2.414-2.414zm5.794 6.757v7.241h8.207c1.609 0 2.413-.805 2.413-2.414V981.4h-10.62zm-8.206 33.793 22.206-.001c1.609.322 2.413 1.127 2.413 2.414v2.414c0 1.609-.804 2.414-2.413 2.414h-6.759v24.62h-8.207v-24.62h-7.24c-1.61 0-2.414-.805-2.414-2.414v-2.414c.322-1.609 1.126-2.413 2.414-2.413zm-2.412 41.034h5.793c2.253 0 4.666 6.597 7.24 19.792h.966c3.862-11.586 5.793-18.183 5.793-19.792h8.207c-6.115 20.918-9.977 31.378-11.586 31.378h-6.759zm-251.51 26.55v6.276c0 1.287-6.275 3.861-18.827 7.723v1.449l18.827 6.758v7.241l-29.447-10.62v-8.207zm-181.031 14h3.861c2.575 0 6.759 10.62 12.552 31.86h-6.759c0-.643-.805-3.057-2.414-7.24h-10.62c-.643 4.827-1.77 7.24-3.378 7.24h-5.793c6.758-21.24 10.942-31.86 12.551-31.86zm447.988 0h3.38c7.723 0 12.39 5.47 13.999 16.413-2.253 10.942-7.241 16.413-14.965 16.413-10.942-1.931-16.413-7.402-16.413-16.413 1.609-10.943 6.275-16.414 14-16.414zm-5.793 15.447v.966c0 4.184 1.93 7.403 5.793 9.655h3.379c3.862-2.253 5.793-5.47 5.793-9.655v-.965c-.643-6.115-3.38-9.173-8.207-9.173-4.505 1.61-6.758 4.667-6.758 9.172zm-440.747-4.824c-1.61 5.149-2.414 7.884-2.414 8.206h5.793l-2.414-8.206h-.965zm301.717 114.407h155.442v11.586h-155.442v-11.586zm587.254-678.742h236.546c79.172 0 130.34 27.837 153.514 83.516 9.977 28.642 14.964 61.47 14.964 98.48v28.965c0 66.942-14.643 117.946-43.93 153.029h-50.203v25.585h76.754v165.096h-45.378v25.585h68.549v97.516h-143.86v-155.925h-55.513V964.018h-96.547v170.89h20.758v98.48h-133.236c-1.61 0-2.414-.805-2.414-2.414V953.878h59.379v-19.792h-59.379V543.062zm135.65 112.509V850.6h32.827c49.24 0 77.723-4.667 85.445-14 8.045-5.149 14.321-15.608 18.827-31.378h51.172v-24.62h-46.343v2.413c-2.574 14.805-4.505 22.207-5.793 22.207h-66.136v-24.62h69.517c1.61 0 2.414-.644 2.414-1.931.644-19.953.966-31.217.966-33.792 0-43.124-7.403-69.517-22.207-79.171-11.586-6.759-32.826-10.138-63.724-10.138h-56.96zm-14.963 314.244h5.793c3.219 1.61 4.828 4.023 4.828 7.241 1.287 0 2.735-2.414 4.344-7.24h7.241v1.447l-7.24 10.138c0 .644 2.735 4.988 8.206 13.034v.965h-5.793c-.643 0-2.896-2.735-6.758-8.206-2.253 5.149-4.184 7.885-5.793 8.207h-5.793c5.15-8.046 7.724-12.713 7.724-14zm.964 34.756h21.241v3.862l-13.034 15.931h13.034v5.793h-22.206v-4.345l12.551-16.413h-11.586v-4.827zm773.112-462.448h340.814v112.963c0 1.61-.805 2.414-2.414 2.414h-202.269v150.132h181.513v.966c0 4.505-.805 28.965-2.414 73.378-.644 0-.966.483-.966 1.448h8.207v34.758H2968.39v141.926h-41.999v14h41.999v42.964h178.131v16.413h-14v84.965h-212.887v14.965h-101.376V985.768h-14.965v-87.377h-110.547v-14.965h110.547V542.127zm.964 341.279v14.964h56.961v-14.964h-56.961zm174.755 198.893h8.206v11.585h.966c0-2.253 3.54-6.115 10.62-11.586h8.207l-11.586 12.552 12.551 18.827h-8.207c-6.114-8.69-9.494-13.034-10.137-13.034-1.61.322-2.414 1.126-2.414 2.414v10.62h-8.207v-31.379zm40.55 0h16.412c5.15 0 8.69 3.057 10.62 9.172 0 .965-1.608 3.701-4.827 8.207 2.253 0 3.862 4.666 4.828 13.999h-5.793c-1.61 0-2.897-3.862-3.862-11.586h-9.173v11.586h-8.207v-31.378zm52.62 0h4.346c7.08 0 11.425 4.666 13.034 13.998v4.345c0 2.575-1.127 5.31-3.38 8.207v1.448c2.253 0 3.38.644 3.38 1.931s-1.127 2.575-3.38 3.863c-1.287 0-2.575-1.288-3.862-3.862l-5.793 1.448h-4.345c-7.724 0-12.068-5.793-13.034-17.379 2.253-9.333 6.598-14 13.034-14zm-4.83 13.999v3.38c0 5.47 2.737 8.206 8.208 8.206h.965v-1.448h-1.93v-.965c0-1.288 1.125-2.414 3.378-3.38l3.38 1.932c0-.322.322-2.575.965-6.76-.322-6.114-3.38-9.172-9.172-9.172-3.862.966-5.793 3.701-5.793 8.207zm-39.585-7.242v7.24h8.207c1.609 0 2.414-.804 2.414-2.413v-2.413c0-1.61-.805-2.414-2.414-2.414h-8.207zm111.995 51.168h6.758v1.448c0 13.839-1.126 20.758-3.379 20.758s-3.379-4.988-3.379-14.965v-7.24zm0 23.174h6.758v7.24h-6.758v-7.24z"/></g></svg>