<svg xmlns="http://www.w3.org/2000/svg" xmlns:xlink="http://www.w3.org/1999/xlink" width="3293.040293040293" height="1379.9369215931881" viewBox="0 0 3293.040293040293 1379.9369215931881" class="w-[200px] h-[100px] text-white "><g transform="scale(14.652014652014653) translate(10, 10)"><defs id="SvgjsDefs1739"></defs><g id="SvgjsG1740" featureKey="nameFeature-0" transform="matrix(0.23918589592195313,0,0,0.23918589592195313,0.6122795933664584,-2.784274232138269)" fill="#fff"><path d="M12.949 40.39063 c-5.9375 0 -10.449 -2.8516 -11.328 -7.8906 l5.2148 -1.2109 c0.46875 3.1836 2.9883 4.9023 6.3086 4.9023 c2.6172 0 4.8828 -1.1133 4.8633 -3.8672 c-0.039063 -2.9102 -3.3398 -3.7891 -6.9141 -4.8242 c-4.1992 -1.25 -8.5547 -2.6953 -8.5547 -7.8516 c0 -5.1953 4.2578 -8.0078 9.6875 -8.0078 c4.9023 0 9.6484 2.0313 10.742 7.168 l-4.8828 1.2109 c-0.58594 -2.8906 -2.7539 -4.1992 -5.5859 -4.1992 c-2.5195 0 -4.8438 1.0742 -4.8438 3.7305 c0 2.4414 2.9102 3.2227 6.2305 4.1602 c4.2969 1.25 9.3555 2.793 9.3555 8.3789 c0 5.8398 -4.9023 8.3008 -10.293 8.3008 z M117.0314375 40.39063 c-8.125 0 -14.18 -5.5664 -14.18 -14.395 s6.0547 -14.355 14.18 -14.355 c8.0859 0 14.16 5.5273 14.16 14.355 s-6.0742 14.395 -14.16 14.395 z M117.0314375 35.7031 c5.1172 0 9.1211 -3.5742 9.1211 -9.707 c0 -6.0742 -4.0039 -9.668 -9.1211 -9.668 c-5.1367 0 -9.1406 3.5938 -9.1406 9.668 c0 6.1328 4.0039 9.707 9.1406 9.707 z M244.02371875 40 l-5.0195 0 l-1.875 -21.758 l-7.6953 21.758 l-3.2227 0 l-7.6563 -21.758 l-1.875 21.758 l-5.0391 0 l2.2656 -27.988 l7.1094 0 l6.7969 19.063 l6.8359 -19.063 l7.1289 0 z M342.188 16.504 l-10.684 0 l0 7.2852 l9.4531 0 l0 4.4531 l-9.4531 0 l0 7.2461 l10.684 0 l0 4.5117 l-15.82 0 l0 -27.988 l15.82 0 l0 4.4922 z M439.9025 12.012 l0 4.4922 l-6.8359 0 l0 23.496 l-5.0195 0 l0 -23.496 l-6.8555 0 l0 -4.4922 l18.711 0 z M538.0664375 12.012 l5.0781 0 l0 27.988 l-5.0781 0 l0 -11.797 l-12.578 0 l0 11.797 l-5.0977 0 l0 -27.988 l5.0977 0 l0 11.738 l12.578 0 l0 -11.738 z M626.62110625 40 l0 -27.988 l5.0781 0 l0 27.988 l-5.0781 0 z M734.17959375 12.012 l5.0586 0 l0 27.988 l-5.7422 0 l-13.281 -20.918 l0 20.918 l-5.0391 0 l0 -27.988 l5.6836 0 l13.32 20.762 l0 -20.762 z M834.74565625 40.39063 c-7.9688 0 -13.945 -5.4883 -13.945 -14.316 c0 -8.9063 6.0547 -14.434 14.18 -14.434 c5.293 0 9.7461 2.3242 12.188 6.5625 l-4.4727 2.3828 c-1.582 -3.0469 -4.4141 -4.4727 -7.7148 -4.4727 c-5.1563 0 -9.1016 3.5352 -9.1016 9.8438 c0 6.1719 3.75 9.9609 9.2773 9.9609 c4.043 0 7.5195 -2.1289 8.2422 -6.6797 l-8.2422 0 l0 -4.1406 l13.086 0 l0 14.902 l-4.043 0 l0 -4.3359 c-1.8164 2.9688 -5 4.7266 -9.4531 4.7266 z"></path></g><g id="SvgjsG1741" featureKey="sloganFeature-0" transform="matrix(3.3737885952535502,0,0,3.3737885952535502,-1.186089107093054,6.703288505933678)" fill="#fff"><path d="M0.35156 6.035 l4.7852 -0.0000095367 c1.6016 0 2.6367 0.56315 3.1055 1.6895 c0.20183 0.57942 0.30273 1.2435 0.30273 1.9922 l0 0.58594 c0 1.3542 -0.29622 2.386 -0.88867 3.0957 l-1.0156 0 l0 0.51758 l1.5527 0 l0 3.3398 l-0.91797 0 l0 0.51758 l1.3867 0 l0 1.9727 l-2.9102 0 l0 -3.1543 l-1.123 0 l0 -2.041 l-1.9531 0 l0 3.457 l0.41992 0 l0 1.9922 l-2.6953 0 c-0.032549 0 -0.048828 -0.016279 -0.048828 -0.048828 l0 -5.6055 l1.2012 0 l0 -0.40039 l-1.2012 0 l0 -7.9102 z M3.0957 8.311 l0 3.9453 l0.66406 0 c0.99609 0 1.5723 -0.094404 1.7285 -0.2832 c0.16276 -0.10417 0.28972 -0.31576 0.38086 -0.63478 l1.0352 0 l0 -0.49805 l-0.9375 0 l0 0.048828 c-0.05208 0.29948 -0.091143 0.44922 -0.11719 0.44922 l-1.3379 0 l0 -0.49805 l1.4063 0 c0.032549 0 0.048828 -0.013018 0.048828 -0.039063 c0.013018 -0.40364 0.019531 -0.6315 0.019531 -0.68358 c0 -0.87239 -0.14974 -1.4063 -0.44922 -1.6016 c-0.23438 -0.13672 -0.66406 -0.20508 -1.2891 -0.20508 l-1.1523 0 z M2.793 14.668 l0.11719 0 c0.065107 0.032549 0.097656 0.081377 0.097656 0.14648 c0.026045 0 0.055342 -0.048828 0.087891 -0.14648 l0.14648 0 l0 0.029297 l-0.14648 0.20508 c0 0.013018 0.055342 0.10091 0.16602 0.26367 l0 0.019531 l-0.11719 0 c-0.013018 0 -0.058594 -0.055342 -0.13672 -0.16602 c-0.045576 0.10417 -0.084639 0.15951 -0.11719 0.16603 l-0.11719 0 c0.10417 -0.16276 0.15625 -0.25717 0.15625 -0.28321 z M2.8125 15.3711 l0.42969 0 l0 0.078125 l-0.26367 0.32227 l0.26367 0 l0 0.11719 l-0.44922 0 l0 -0.087891 l0.25391 -0.33203 l-0.23438 0 l0 -0.097656 z M21.6455453125 6.016 l2.3535 0 c0.032549 0.13672 0.79752 2.6823 2.2949 7.6367 l0.41992 0 l0 4.5996 l-0.9668 0 l0 0.36133 l0.9668 0 l0 0.98633 l-2.5977 0 l0 -2.832 l-3.1836 0 l0 1.2012 l-1.2891 0 l0 2.0313 l-2.3633 0 l0 -0.13672 l0.18555 0 l0 -1.8945 l0.9668 0 l0 -3.916 l0.80078 0 z M22.7490453125 9.951 l0 0.029306 c-0.20183 1.1067 -0.59245 2.8581 -1.1719 5.2539 l2.1875 0 l0 -1.582 l-0.18555 0 c-0.52083 -2.2656 -0.78125 -3.4993 -0.78125 -3.7012 l-0.048828 0 z M18.5791453125 13.349599999999999 l0.21484 0 c0 0.058594 0.029297 0.10742 0.087891 0.14648 c0.0065136 -0.058594 0.039063 -0.10742 0.097656 -0.14648 l0.16602 0 l0 0.019531 c-0.11067 0.15625 -0.16602 0.24414 -0.16602 0.26367 c0.026045 0.058594 0.087891 0.153 0.18555 0.2832 l0 0.048828 l-0.087891 0 c-0.091143 0 -0.15625 -0.065107 -0.19531 -0.19531 c-0.097656 0.13021 -0.153 0.19531 -0.16602 0.19531 l-0.11719 0 c-0.032549 0 -0.048828 -0.016279 -0.048828 -0.048828 c0.019531 0 0.084639 -0.087891 0.19531 -0.26367 l0 -0.039063 c-0.11067 -0.16276 -0.16602 -0.25065 -0.16602 -0.26367 z M16.5966853125 13.6328 l1.8359 0 l0 0.41992 l-1.8359 0 l0 -0.41992 z M26.782245312500002 13.935500000000001 l0.49805 -0.0000095367 l0 0.11719 l-0.30273 0.38086 l0.2832 0 c0.026045 0.0065136 0.039063 0.022793 0.039063 0.048838 l0 0.048828 c0 0.032549 -0.013018 0.048828 -0.039063 0.048828 l-0.49805 0 l0 -0.11719 l0.30273 -0.38086 l-0.2832 0 l0 -0.14648 z M23.1787453125 14.550799999999999 l0.13671 -0.0000095367 l0 0.23438 l0.26367 -0.23438 l0.13672 0 l0 0.029297 l-0.20508 0.23438 c0.15625 0.22136 0.23438 0.34506 0.23438 0.3711 l-0.14648 0 c-0.013018 0 -0.084629 -0.084639 -0.21483 -0.25391 c-0.019531 0 -0.042314 0.022783 -0.068359 0.068359 l0 0.18555 l-0.13672 0 l0 -0.63477 z M26.831045312500002 14.7656 l0.28318 0 c0.14323 0.019531 0.21484 0.091143 0.21484 0.21484 l-0.068359 0.11719 c0.045576 0.05208 0.068359 0.14648 0.068359 0.2832 l0 0.019531 l-0.14648 0 c-0.013018 -0.15625 -0.035801 -0.23438 -0.06835 -0.23438 l-0.16602 0 l0 0.23438 l-0.11719 0 c-0.032549 0 -0.048828 -0.016279 -0.048828 -0.048828 l0 -0.53711 c0.0065136 -0.032549 0.022793 -0.048828 0.048838 -0.048828 z M26.9482453125 14.9023 l0 0.14648 l0.16602 0 c0.032549 0 0.048828 -0.016279 0.048828 -0.048828 l0 -0.097656 l-0.21484 0 z M26.782245312500002 15.585899999999999 l0.44921 -0.0000095367 c0.032549 0.0065136 0.048828 0.022793 0.048828 0.048838 l0 0.048828 c0 0.032549 -0.016279 0.048828 -0.048828 0.048828 l-0.13672 0 l0 0.49805 l-0.16602 0 l0 -0.49805 l-0.14648 0 c-0.032549 0 -0.048828 -0.016279 -0.048828 -0.048828 l0 -0.048828 c0.0065136 -0.032549 0.022793 -0.048828 0.048838 -0.048828 z M26.733445312500002 16.416 l0.11719 0 c0.045576 0 0.094404 0.13347 0.14648 0.40039 l0.019531 0 c0.078125 -0.23438 0.11719 -0.36784 0.11719 -0.40039 l0.16602 0 c-0.1237 0.42317 -0.20183 0.63477 -0.23438 0.63477 l-0.13672 0 z M21.6455453125 16.9531 l0 0.12695 c0 0.026045 -0.12695 0.078125 -0.38086 0.15625 l0 0.029297 l0.38086 0.13672 l0 0.14648 l-0.5957 -0.21484 l0 -0.16602 z M17.9833653125 17.2363 l0.078115 0 c0.05208 0 0.13672 0.21484 0.25391 0.64453 l-0.13672 0 c0 -0.013018 -0.016279 -0.061846 -0.048828 -0.14648 l-0.21484 0 c-0.013018 0.097656 -0.035801 0.14648 -0.06835 0.14648 l-0.11719 0 c0.13672 -0.42969 0.22136 -0.64453 0.25391 -0.64453 z M27.045945312500002 17.2363 l0.068359 0 c0.15625 0 0.25065 0.11067 0.2832 0.33203 c-0.045576 0.22136 -0.14648 0.33203 -0.30273 0.33203 c-0.22136 -0.039063 -0.33203 -0.14974 -0.33203 -0.33203 c0.032549 -0.22136 0.12695 -0.33203 0.2832 -0.33203 z M26.9287453125 17.5488 l0 0.019541 c0 0.084639 0.039063 0.14975 0.11719 0.19532 l0.068359 0 c0.078125 -0.045576 0.11719 -0.11068 0.11719 -0.19532 l0 -0.019531 c-0.013018 -0.1237 -0.068359 -0.18555 -0.16602 -0.18555 c-0.091143 0.032549 -0.13672 0.094395 -0.13672 0.18554 z M18.0126553125 17.4512 c-0.032549 0.10417 -0.048828 0.1595 -0.048828 0.16602 l0.11719 0 l-0.048828 -0.16602 l-0.019531 0 z M24.1162453125 19.76561 l3.1445 0 l0 0.23438 l-3.1445 0 l0 -0.23438 z M35.99609125 6.035 l4.7852 -0.0000095367 c1.6016 0 2.6367 0.56315 3.1055 1.6895 c0.20183 0.57942 0.30273 1.2435 0.30273 1.9922 l0 0.58594 c0 1.3542 -0.29622 2.386 -0.88867 3.0957 l-1.0156 0 l0 0.51758 l1.5527 0 l0 3.3398 l-0.91797 0 l0 0.51758 l1.3867 0 l0 1.9727 l-2.9102 0 l0 -3.1543 l-1.123 0 l0 -2.041 l-1.9531 0 l0 3.457 l0.41992 0 l0 1.9922 l-2.6953 0 c-0.032549 0 -0.048828 -0.016279 -0.048828 -0.048828 l0 -5.6055 l1.2012 0 l0 -0.40039 l-1.2012 0 l0 -7.9102 z M38.74023125 8.311 l0 3.9453 l0.66406 0 c0.99609 0 1.5723 -0.094404 1.7285 -0.2832 c0.16276 -0.10417 0.28972 -0.31576 0.38086 -0.63478 l1.0352 0 l0 -0.49805 l-0.9375 0 l0 0.048828 c-0.05208 0.29948 -0.091143 0.44922 -0.11719 0.44922 l-1.3379 0 l0 -0.49805 l1.4063 0 c0.032549 0 0.048828 -0.013018 0.048828 -0.039063 c0.013018 -0.40364 0.019531 -0.6315 0.019531 -0.68358 c0 -0.87239 -0.14974 -1.4063 -0.44922 -1.6016 c-0.23438 -0.13672 -0.66406 -0.20508 -1.2891 -0.20508 l-1.1523 0 z M38.43753125 14.668 l0.11719 0 c0.065107 0.032549 0.097656 0.081377 0.097656 0.14648 c0.026045 0 0.055342 -0.048828 0.087891 -0.14648 l0.14648 0 l0 0.029297 l-0.14648 0.20508 c0 0.013018 0.055342 0.10091 0.16602 0.26367 l0 0.019531 l-0.11719 0 c-0.013018 0 -0.058594 -0.055342 -0.13672 -0.16602 c-0.045576 0.10417 -0.084639 0.15951 -0.11719 0.16603 l-0.11719 0 c0.10417 -0.16276 0.15625 -0.25717 0.15625 -0.28321 z M38.45703125 15.3711 l0.42969 0 l0 0.078125 l-0.26367 0.32227 l0.26367 0 l0 0.11719 l-0.44922 0 l0 -0.087891 l0.25391 -0.33203 l-0.23438 0 l0 -0.097656 z M54.0966765625 6.016 l6.8945 0 l0 2.2852 c0 0.032549 -0.016279 0.048828 -0.048828 0.048828 l-4.0918 0 l0 3.0371 l3.6719 0 l0 0.019531 c0 0.091143 -0.016279 0.58594 -0.048828 1.4844 c-0.013018 0 -0.019531 0.0097656 -0.019531 0.029297 l0.16602 0 l0 0.70313 l-3.1836 0 l0 2.8711 l-0.84961 0 l0 0.2832 l0.84961 0 l0 0.86914 l3.6035 0 l0 0.33203 l-0.2832 0 l0 1.7188 l-4.3066 0 l0 0.30273 l-2.0508 0 l0 -5.0098 l-0.30273 0 l0 -1.7676 l-2.2363 0 l0 -0.30273 l2.2363 0 l0 -6.9043 z M54.1161765625 12.9199 l0 0.30273 l1.1523 0 l0 -0.30273 l-1.1523 0 z M57.6513765625 16.9434 l0.16602 -0.0000095367 l0 0.23438 l0.019531 0 c0 -0.045576 0.071611 -0.1237 0.21484 -0.23438 l0.16602 0 l-0.23438 0.25391 l0.25391 0.38086 l-0.16602 0 c-0.1237 -0.17578 -0.19206 -0.26367 -0.20508 -0.26367 c-0.032549 0.0065136 -0.048828 0.022793 -0.048828 0.048838 l0 0.21484 l-0.16602 0 l0 -0.63477 z M58.4716765625 16.9434 l0.33203 0 c0.10417 0 0.17578 0.061846 0.21484 0.18555 c0 0.019531 -0.032549 0.074873 -0.097656 0.16602 c0.045576 0 0.078125 0.094404 0.097656 0.2832 l-0.11719 0 c-0.032549 0 -0.058594 -0.078125 -0.078125 -0.23438 l-0.18555 0 l0 0.23438 l-0.16602 0 l0 -0.63477 z M59.5361765625 16.9434 l0.0879 -0.0000095367 c0.14323 0 0.23112 0.094404 0.26367 0.2832 l0 0.087891 c0 0.05208 -0.022783 0.10742 -0.068359 0.16602 l0 0.029297 c0.045576 0 0.068359 0.013018 0.068359 0.039063 s-0.022783 0.05209 -0.068359 0.078135 c-0.026045 0 -0.05209 -0.026045 -0.078135 -0.078125 l-0.11719 0.029297 l-0.087891 0 c-0.15625 0 -0.24414 -0.11719 -0.26367 -0.35156 c0.045576 -0.1888 0.13347 -0.2832 0.26367 -0.2832 z M59.4384765625 17.2266 l0 0.068369 c0 0.11067 0.055342 0.16602 0.16602 0.16602 l0.019531 0 l0 -0.029297 l-0.039063 0 l0 -0.019531 c0 -0.026045 0.022783 -0.048828 0.068359 -0.068359 l0.068359 0.039063 c0 -0.0065136 0.0065136 -0.05209 0.019531 -0.13673 c-0.0065136 -0.1237 -0.068359 -0.18555 -0.18555 -0.18555 c-0.078125 0.019531 -0.11719 0.074873 -0.11719 0.16602 z M58.6376765625 17.0801 l0 0.14648 l0.16602 0 c0.032549 0 0.048828 -0.016279 0.048828 -0.048828 l0 -0.048828 c0 -0.032549 -0.016279 -0.048828 -0.048828 -0.048828 l-0.16602 0 z M60.9032765625 18.1152 l0.13672 0 l0 0.029297 c0 0.27995 -0.022783 0.41992 -0.068359 0.41992 s-0.068359 -0.10091 -0.068359 -0.30273 l0 -0.14648 z M60.9032765625 18.584 l0.13672 0 l0 0.14648 l-0.13672 0 l0 -0.14648 z"></path></g></g></svg>